inDegrees=yes
name=ik_Xsens
DataType=double
version=3
OpenSimVersion=4.4-2022-07-23-0e9fedc
endheader
time	pelvis_tilt	pelvis_list	pelvis_rotation	pelvis_tx	pelvis_ty	pelvis_tz	hip_flexion_r	hip_adduction_r	hip_rotation_r	knee_angle_r	knee_angle_r_beta	ankle_angle_r	subtalar_angle_r	mtp_angle_r	hip_flexion_l	hip_adduction_l	hip_rotation_l	knee_angle_l	knee_angle_l_beta	ankle_angle_l	subtalar_angle_l	mtp_angle_l	lumbar_extension	lumbar_bending	lumbar_rotation	arm_flex_r	arm_add_r	arm_rot_r	elbow_flex_r	pro_sup_r	wrist_flex_r	wrist_dev_r	arm_flex_l	arm_add_l	arm_rot_l	elbow_flex_l	pro_sup_l	wrist_flex_l	wrist_dev_l
31.38333333333333	6.034438761768378e-27	-2.737966332372384e-25	-6.359651415422615e-26	2.103000669349491e-22	0.93	-2.48268566767008e-20	6.28615043242998e-29	-2.017071683800312e-17	0	0	-4.124254591033302e-18	-9.537341166179905e-20	-2.529378207894706e-19	2.226903364096507e-25	-2.456970875510324e-15	8.808922887535918e-27	-2.065392421814713e-15	0	-4.126002837451631e-18	-4.37615084585263e-20	1.112173054085433e-24	-6.387667094444889e-25	3.756976270048848e-26	2.826170880759623e-17	-9.993557340259885e-24	-7.165116888093491	-58.10460859432635	-51.55024831171269	98.82571706931485	62.87890733821347	-2.701368213510386e-21	4.899149305573565e-20	-51.64503325762085	-43.69752538157399	-96.61193704019684	84.99254907017847	18.20582409738069	-2.162454485084351e-19	3.657861004714129e-19
31.4	0	0	0	0	0.93	0	0	0	0	0	0	0	0	0	0	0	0	0	0	0	0	0	0	0	0	-7.256590223481219	-58.05631310118167	-51.66386020463867	98.84660392618478	62.92589587934727	0	0	-51.63433802464086	-43.71512900175428	-96.5920049352399	84.98037291167084	18.20064877406354	0	0
31.41666666666667	0	0	0	0	0.93	0	0	0	0	0	3.724338537258778e-39	0	0	0	0	0	0	0	3.724338537258778e-39	0	0	0	0	0	0	-7.306287095852781	-58.02482109148445	-51.71678918038781	98.82925577761235	62.96782228306702	0	0	-51.61624726258745	-43.72707733685748	-96.57527250319953	84.98751483203976	18.1894320295561	0	0
31.43333333333333	-1.168977454282228e-24	3.606793652130949e-21	7.711797780621168e-25	-1.422061573606476e-22	0.93	-7.47116544602701e-25	-2.155227684594804e-35	-2.2008253604297e-23	-2.606667693383665e-34	0	4.368720594999071e-17	1.616758083088496e-16	8.352098816223417e-20	1.588082249277758e-19	1.611349866592637e-25	-1.259340467072211e-24	-1.213030770299571e-14	0	-5.269756583498076e-17	-3.394432831766505e-15	4.42515937997938e-20	4.087420447646246e-20	3.035557805208114e-15	5.918409428150474e-15	2.712562455267168e-15	-7.368586108583768	-57.97298231506274	-51.80402475807855	98.82139157305168	63.03146059020792	-5.999577091897191e-20	5.364055864424272e-17	-51.57253893739183	-43.74238199049292	-96.55610206971865	84.99649803989067	18.17555703404469	1.432153378599723e-24	3.401633827001664e-17
31.45	-6.021636588298168e-44	1.64430823104462e-40	3.010818294149084e-44	-5.739718509874451e-42	0.93	-3.363116314379561e-44	4.594144125593695e-49	-9.634618541277069e-43	-9.34681015135436e-54	2.426570649309934e-20	5.918743760362013e-23	8.082103817230515e-36	3.946339754507087e-39	7.892679509014175e-39	7.52704573537271e-45	-6.021636588298168e-44	-5.17254644302753e-34	2.426570649309934e-20	-9.667047376209964e-23	-1.293136610756882e-34	1.973169877253544e-39	1.973169877253544e-39	1.293136610756882e-34	2.586273221513765e-34	1.293136610756882e-34	-7.409035970593993	-57.9479248438454	-51.87240908608839	98.80576715991651	63.08742008180638	-2.630893169671392e-39	2.694034605743505e-36	-51.52913456342264	-43.7430900941922	-96.55019419280731	85.00991949591062	18.17097224346321	6.021636588298168e-44	1.347017302871753e-36
31.46666666666667	-2.176223823650358e-63	6.685359586253901e-60	1.088111911825179e-63	-2.333630729197928e-61	0.93	-1.215432671457254e-63	4.594144125593695e-49	-3.481958117840573e-62	-3.800186951965486e-73	2.426570649309934e-20	5.918743760362013e-23	2.920878172298238e-55	1.426210045067499e-58	2.852420090134998e-58	4.594144125593695e-49	-2.176223823650358e-63	-1.869362030270872e-53	2.426570649309934e-20	-9.667047376209964e-23	-4.67340507567718e-54	7.131050225337494e-59	7.131050225337494e-59	4.67340507567718e-54	9.34681015135436e-54	4.67340507567718e-54	-7.457106146859616	-57.90722451842009	-51.9497258094979	98.78784703705163	63.13992812167814	-1.069657533800624e-58	1.095329314611839e-55	-51.48149082462217	-43.75084598406894	-96.56066564707578	85.03527570247182	18.19102957091748	2.176223823650358e-63	5.476646573059195e-56
31.48333333333333	-8.847999740311612e-83	2.416093795754424e-79	4.423999870155806e-83	-8.433758354584419e-81	0.93	-4.941655285889308e-83	4.594144125593695e-49	-1.415679958449858e-81	-1.373390316390683e-92	2.426570649309934e-20	5.918743760362013e-23	1.187558422489215e-74	5.798625109810618e-78	1.159725021962124e-77	4.594144125593695e-49	-8.847999740311612e-83	-7.600373903930973e-73	2.426570649309934e-20	-9.667047376209964e-23	-1.900093475982743e-73	2.899312554905309e-78	2.899312554905309e-78	1.900093475982743e-73	3.800186951965486e-73	1.900093475982743e-73	-7.510482654417083	-57.86189323316113	-52.02610450847673	98.78721623211715	63.17105324256008	-3.865750073207078e-78	3.958528074964048e-75	-51.43447559353715	-43.76331875357814	-96.574459865468	85.05216772486411	18.22666571268251	8.847999740311612e-83	1.979264037482024e-75
31.5	-3.197673513532343e-102	9.823253033571357e-99	1.598836756766171e-102	-3.428962173846825e-100	0.93	-1.785917798878555e-102	4.594144125593695e-49	-5.116277621651748e-101	-5.583872867629996e-112	2.426570649309934e-20	5.918743760362013e-23	4.291844738720883e-94	2.095627313828556e-97	4.191254627657112e-97	4.594144125593695e-49	-3.197673513532343e-102	-2.746780632781365e-92	2.426570649309934e-20	-9.667047376209964e-23	-6.866951581953413e-93	1.047813656914278e-97	1.047813656914278e-97	6.866951581953413e-93	1.373390316390683e-92	6.866951581953413e-93	-7.565546403348183	-57.82555657614832	-52.09266323533381	98.78505175128254	63.20574048563771	-1.571720485371417e-97	1.609441777020331e-94	-51.37855706269094	-43.77503188093927	-96.56932669043006	85.06299503436011	18.24200468523591	3.197673513532343e-102	8.047208885101656e-95
31.51666666666667	-1.300096713851671e-121	3.550130759957629e-118	6.500483569258354e-122	-1.239229412751782e-119	0.93	-7.261109840342472e-122	4.594144125593695e-49	-2.080154742162673e-120	-2.018015697989102e-131	2.426570649309934e-20	6.772032451745116e-24	1.744960271134374e-113	8.52031382389831e-117	1.704062764779662e-116	4.594144125593695e-49	-1.300096713851671e-121	-1.116774573525999e-111	2.426570649309934e-20	6.267235789960033e-23	-2.791936433814998e-112	4.260156911949155e-117	4.260156911949155e-117	2.791936433814998e-112	5.583872867629996e-112	2.791936433814998e-112	-7.614521571501562	-57.79202779206186	-52.14764473468419	98.77437313256206	63.24277602884275	-5.680209215932206e-117	5.816534237114579e-114	-51.33203526781973	-43.79257150148893	-96.56383256905495	85.07942844339343	18.26946282405997	1.300096713851671e-121	2.90826711855729e-114
31.53333333333333	0	0	0	0	0.93	0	0	0	0	0	0	0	0	0	0	0	0	0	0	0	0	0	0	0	0	-7.675729544216009	-57.74256541413261	-52.21697890556075	98.78052834511269	63.26756120722032	0	0	-51.26993857331635	-43.8098564128212	-96.52670567162981	85.11284063984736	18.31502986238349	0	0
31.55	0	0	0	0	0.93	0	4.594144125593695e-49	0	0	2.426570649309934e-20	0	0	0	0	4.594144125593695e-49	0	0	2.426570649309934e-20	0	0	0	0	0	0	0	-7.708907992211705	-57.72110766748208	-52.27499726005107	98.77050157321452	63.2983441762367	0	0	-51.228262227626	-43.81705143638882	-96.50153647872266	85.13460712059513	18.34519198833332	0	0
31.56666666666667	0	0	0	0	0.93	0	4.594144125593695e-49	0	0	2.426570649309934e-20	-5.241540515187501e-23	0	0	0	4.594144125593695e-49	0	0	2.426570649309934e-20	-5.241540515187501e-23	0	0	0	0	0	0	-7.767272574222526	-57.67836163140437	-52.35240426339177	98.78208893995075	63.31648199319712	0	0	-51.1648360638606	-43.82919558516573	-96.45927431383262	85.18059588482254	18.39405879236817	0	0
31.58333333333333	0	0	0	0	0.93	0	4.594144125593695e-49	0	0	2.426570649309934e-20	-5.241540515187501e-23	0	0	0	4.594144125593695e-49	0	0	2.426570649309934e-20	-5.241540515187501e-23	0	0	0	0	0	0	-7.814044477038824	-57.64663719749186	-52.41218754767807	98.78891044619091	63.3074778828373	0	0	-51.12396891645421	-43.8343845759982	-96.42776624179926	85.22390571948908	18.41043883596149	0	0
